<?xml version="1.0" encoding="UTF-8" standalone="no"?>
<svg
   version="1.0"
   viewBox="0 0 128 142.4886"
   id="svg2166"
   sodipodi:version="0.32"
   inkscape:version="1.4.2 (f4327f4, 2025-05-13)"
   sodipodi:docname="oushou.svg"
   inkscape:output_extension="org.inkscape.output.svg.inkscape"
   sodipodi:modified="true"
   width="128"
   height="142.4886"
   xmlns:inkscape="http://www.inkscape.org/namespaces/inkscape"
   xmlns:sodipodi="http://sodipodi.sourceforge.net/DTD/sodipodi-0.dtd"
   xmlns:xlink="http://www.w3.org/1999/xlink"
   xmlns="http://www.w3.org/2000/svg"
   xmlns:svg="http://www.w3.org/2000/svg"
   xmlns:rdf="http://www.w3.org/1999/02/22-rdf-syntax-ns#"
   xmlns:cc="http://creativecommons.org/ns#"
   xmlns:dc="http://purl.org/dc/elements/1.1/">
  <metadata
     id="metadata15">
    <rdf:RDF>
      <cc:Work
         rdf:about="">
        <dc:format>image/svg+xml</dc:format>
        <dc:type
           rdf:resource="http://purl.org/dc/dcmitype/StillImage" />
        <dc:date>2007-07-22</dc:date>
        <dc:creator>
          <cc:Agent>
            <dc:title>13xforever</dc:title>
          </cc:Agent>
        </dc:creator>
        <dc:language>ja</dc:language>
        <dc:subject>
          <rdf:Bag>
            <rdf:li>oushou</rdf:li>
            <rdf:li>osho</rdf:li>
            <rdf:li>王将</rdf:li>
            <rdf:li>shougi</rdf:li>
            <rdf:li>shogi</rdf:li>
            <rdf:li>将棋</rdf:li>
          </rdf:Bag>
        </dc:subject>
        <dc:coverage>board game</dc:coverage>
        <cc:license
           rdf:resource="http://creativecommons.org/licenses/by-sa/3.0/" />
      </cc:Work>
      <cc:License
         rdf:about="http://creativecommons.org/licenses/by-sa/3.0/">
        <cc:permits
           rdf:resource="http://web.resource.org/cc/Reproduction" />
        <cc:permits
           rdf:resource="http://web.resource.org/cc/Distribution" />
        <cc:requires
           rdf:resource="http://web.resource.org/cc/Notice" />
        <cc:requires
           rdf:resource="http://web.resource.org/cc/Attribution" />
        <cc:permits
           rdf:resource="http://web.resource.org/cc/DerivativeWorks" />
        <cc:requires
           rdf:resource="http://web.resource.org/cc/ShareAlike" />
      </cc:License>
    </rdf:RDF>
  </metadata>
  <sodipodi:namedview
     inkscape:window-height="1526"
     inkscape:window-width="2880"
     inkscape:pageshadow="2"
     inkscape:pageopacity="0.0"
     guidetolerance="10.0"
     gridtolerance="10.0"
     objecttolerance="10.0"
     borderopacity="1.0"
     bordercolor="#666666"
     pagecolor="#ffffff"
     id="base"
     inkscape:zoom="7.0893595"
     inkscape:cx="82.024335"
     inkscape:cy="65.802842"
     inkscape:window-x="-11"
     inkscape:window-y="-11"
     inkscape:current-layer="layer1"
     inkscape:showpageshadow="0"
     inkscape:pagecheckerboard="1"
     inkscape:deskcolor="#d1d1d1"
     inkscape:window-maximized="1" />
  <defs
     id="defs2168">
    <linearGradient
       id="linearGradient10936">
      <stop
         style="stop-color:#fcf3e8;stop-opacity:1"
         offset="0"
         id="stop10938" />
      <stop
         style="stop-color:#ba6100;stop-opacity:1"
         offset="1"
         id="stop10940" />
    </linearGradient>
    <linearGradient
       x1="17.523264"
       y1="5.9785309"
       x2="101.69292"
       y2="113.38583"
       id="linearGradient10942"
       xlink:href="#linearGradient10936"
       gradientUnits="userSpaceOnUse"
       gradientTransform="translate(3.1889734)" />
    <linearGradient
       x1="17.523264"
       y1="5.9785309"
       x2="101.69292"
       y2="113.38583"
       id="linearGradient12957"
       xlink:href="#linearGradient10936"
       gradientUnits="userSpaceOnUse"
       gradientTransform="translate(3.1889728)" />
  </defs>
  <g
     id="layer1"
     transform="matrix(0.27488177,0,0,0.27488177,-0.85335481,-1.459302)">
    <g
       transform="matrix(4.571429,0,0,4.571429,-11.087299,5.3368212)"
       id="g12950">
      <path
         d="M 3.6843526,112.89044 H 104.3865 L 87.439063,5.7638999 54.035426,0.49538135 20.631786,5.7638999 Z"
         style="fill:url(#linearGradient12957);fill-opacity:1;fill-rule:evenodd;stroke:#000000;stroke-width:0.990759px;stroke-linecap:butt;stroke-linejoin:miter;stroke-opacity:0.498039"
         id="path9965" />
      <path
         d="m 54.035426,15.790197 c 1.458303,0.875033 2.005174,1.822947 1.640623,2.843748 -0.364612,1.020862 -0.61982,3.864604 -0.76562,8.531242 2.624966,-0.583312 4.484332,-1.020811 5.578117,-1.312499 1.093714,-0.291644 2.333298,-0.03644 3.71875,0.765623 1.38538,0.802105 0.69267,1.531274 -2.078123,2.1875 -2.770867,0.656271 -5.177114,1.130226 -7.218744,1.421872 -3.5e-5,4.375023 -0.07297,8.385433 -0.218754,12.031259 3.937465,-0.583331 7.036419,-1.020829 9.296875,-1.312502 2.260373,-0.291657 3.973913,-0.473948 5.140624,-0.546875 1.16662,-0.07291 2.44266,0.07291 3.828123,0.4375 1.385366,0.364593 2.588492,1.166675 3.609374,2.406252 1.020782,1.239587 -0.619843,1.640628 -4.921874,1.203123 -4.302126,-0.437494 -8.531287,-0.473953 -12.687501,-0.109373 -4.156274,0.364585 -8.348979,0.911456 -12.578116,1.64062 -4.229187,0.729168 -7.328143,1.276047 -9.296881,1.640624 -1.968756,0.364589 -3.755213,0.03646 -5.359374,-0.984373 -1.604169,-1.020829 -1.494796,-1.567701 0.328128,-1.640622 1.822906,-0.07291 4.265612,-0.291664 7.328122,-0.656249 3.062489,-0.36458 7.218734,-0.984372 12.46875,-1.859378 V 30.665185 c -2.333356,0.437518 -4.156272,0.729186 -5.468745,0.874996 -1.312523,0.14586 -2.770855,-0.182267 -4.375004,-0.984372 -1.604179,-0.802064 -1.130224,-1.348937 1.421876,-1.640624 2.552062,-0.291645 5.359352,-0.729145 8.421873,-1.312499 0.145787,-3.208305 0.145787,-5.687469 0,-7.437494 -0.145845,-1.749964 -0.364608,-3.062464 -0.656247,-3.937495 -1.895858,0.291699 -3.572942,0.473989 -5.031251,0.546875 -1.458354,0.07295 -2.843769,-0.291634 -4.156251,-1.093751 -1.312515,-0.802046 -1.239598,-1.276004 0.218752,-1.421875 1.458313,-0.145797 4.520809,-0.656216 9.187497,-1.531254 4.666634,-0.874961 7.984336,-1.531209 9.953122,-1.968749 1.968712,-0.437461 3.463502,-0.218711 4.484375,0.656252 1.020796,0.875033 0.109329,1.713575 -2.734374,2.515627 -2.843787,0.802117 -5.869823,1.42191 -9.078122,1.859377 z"
         style="font-style:normal;font-variant:normal;font-weight:normal;font-stretch:normal;font-size:56px;line-height:100%;font-family:KaiTi;text-align:center;writing-mode:lr-tb;text-anchor:middle;fill:#000000;fill-opacity:1;stroke:#000000;stroke-width:1;stroke-opacity:0.498039"
         id="text11929" />
      <path
         d="m 38.035426,82.681749 c 0.999983,1.333353 1.291651,2.333352 0.875001,3.000001 -0.416684,0.666683 -1.166683,2.291681 -2.250001,4.874996 -1.083347,2.58334 -2.333344,4.750002 -3.75,6.499994 -1.416677,1.750012 -2.833343,3.00001 -4.250002,3.75 -1.41667,0.75 -1.500005,0.375 -0.249996,-1.124989 1.249992,-1.500003 2.416656,-3.291668 3.499995,-5.37501 1.083327,-2.083318 1.916658,-4.166646 2.500003,-6.249991 0.583322,-2.083313 0.70832,-3.458316 0.375,-4.124998 -2.666678,0.833349 -4.333342,1.333346 -5.000001,1.499998 -0.666673,0.166687 -1.666672,-0.333314 -2.999997,-1.499998 -1.333339,-1.16665 -1.250006,-1.749979 0.249996,-1.750001 1.499995,2.2e-5 3.083327,-0.125021 4.75,-0.375001 1.666657,-0.249981 3.49999,-0.58331 5.500002,-1.000001 1.999981,-0.416641 4.249982,-0.958309 6.749997,-1.624997 0.333316,-3.166644 0.499979,-5.749972 0.500004,-7.750003 -1.833355,0.166705 -3.208351,0.375033 -4.125001,0.625001 -0.916685,0.250035 -1.750014,0.666698 -2.499998,1.250001 -0.750016,0.583361 -1.375017,0.541699 -1.875,-0.124981 -0.500014,-0.666633 -0.666686,-1.458302 -0.500003,-2.374998 0.166636,-0.916633 0.249987,-1.791637 0.250005,-2.625006 -1.8e-5,-0.833298 -0.166686,-1.99996 -0.500003,-3.499998 -0.333347,-1.499958 -0.875011,-2.66662 -1.625001,-3.499999 -0.750012,-0.833287 -0.625011,-1.24995 0.375001,-1.249997 0.999986,4.7e-5 1.874985,0.125059 2.624999,0.375003 0.749983,0.250041 1.249984,0.541706 1.499999,0.874994 0.249986,0.333376 0.333318,0.958376 0.250002,1.875005 -0.08334,0.916703 -0.125007,1.791698 -0.125007,2.624995 -1.3e-5,0.83337 0.04166,1.750035 0.125007,2.749998 0.08331,1.000033 0.249985,1.458372 0.5,1.375004 0.249982,-0.0833 0.958313,-0.208302 2.124997,-0.375003 1.16665,-0.166616 2.333314,-0.166616 3.500003,0 -2.5e-5,-3.833294 -0.0834,-6.624958 -0.25,-8.374999 -0.166685,-1.749952 -0.583356,-3.208282 -1.250001,-4.374994 -0.666687,-1.166612 -0.666687,-1.749949 0,-1.749996 0.666645,4.7e-5 1.58331,0.208381 2.750002,0.625003 1.16664,0.416707 1.999972,0.875039 2.499997,1.374993 0.499976,0.500047 0.54164,1.20838 0.125008,2.124997 -0.41669,0.916711 -0.708359,2.708373 -0.875001,5.374995 -0.166682,2.666704 -0.333359,7.083367 -0.500002,13.250003 -0.166685,6.166687 -0.250023,10.416682 -0.25,12.749997 -2.3e-5,2.166676 -0.08339,4.458335 -0.249998,6.874996 -0.166685,2.416678 -0.375025,4.083337 -0.625001,4.999997 -0.250019,0.91667 -0.625023,1.29167 -1.124999,1.125 -0.500024,-0.16667 -1.041685,-1.04166 -1.625001,-2.625 -0.58335,-1.583319 -0.708352,-3.291657 -0.375001,-5.125 0.333315,-1.833319 0.62498,-4.124984 0.875005,-6.874992 0.249973,-2.749978 0.374973,-5.458309 0.374997,-8.124998 z M 70.28542,77.681752 c 3.833283,-0.833311 6.416613,-1.374978 7.750001,-1.625003 1.333273,-0.249972 2.541609,0.208358 3.625,1.375007 1.08327,1.16669 0.791605,1.791686 -0.875001,1.874994 -1.666726,0.08337 -5.166718,0.291691 -10.5,0.624998 -4.6e-5,4.50002 0.04162,7.833351 0.125021,9.999999 0.08327,2.166676 0.208282,4.333334 0.375,6.499994 0.166615,2.166676 -4.9e-5,4.083339 -0.500002,5.749999 -0.500051,1.66667 -1.375047,3.125 -2.625,4.375 -1.250046,1.25 -2.250042,1.08333 -2.999997,-0.5 -0.750041,-1.58333 -2.083377,-2.99999 -4,-4.25 -1.916705,-1.24998 -1.83337,-1.70832 0.249998,-1.37499 2.083294,0.33333 3.541622,0.41666 4.375002,0.24999 0.833285,-0.16664 1.374953,-1.249987 1.624996,-3.250003 0.249958,-1.999987 0.291621,-7.749974 0.125009,-17.249985 -6.166705,0.833354 -10.250032,1.541687 -12.25,2.125001 -2.000026,0.583348 -3.79169,0.333354 -5.374997,-0.750001 -1.58336,-1.083316 -1.375027,-1.624975 0.625,-1.625004 1.99997,2.9e-5 7.583295,-0.666644 16.749996,-1.999999 -0.166701,-1.666642 -0.583377,-3.041639 -1.249999,-4.124994 -0.666713,-1.083307 -0.333378,-1.458307 0.999997,-1.125004 1.333289,0.333363 2.499956,0.750029 3.500004,1.250002 0.999951,0.500023 1.291615,1.000023 0.874998,1.499998 -0.416716,0.500025 -0.625047,1.250023 -0.625,2.250001 z M 65.285424,60.181751 c 2.833285,4.4e-5 4.874948,-0.249952 6.124999,-0.75 1.249951,-0.499953 2.416613,-0.499953 3.499997,0 1.083278,0.500048 2.041615,1.083377 2.874999,1.749999 0.833279,0.66671 1.124946,1.16671 0.875005,1.500001 -0.250061,0.333374 -0.875059,0.750038 -1.875003,1.25 -1.000053,0.500036 -2.458384,1.500034 -4.374999,2.999995 -1.916716,1.500034 -4.041715,3.083372 -6.375002,4.750007 -2.333374,1.666694 -4.416703,2.91669 -6.249999,3.749998 -1.833368,0.833356 -3.375032,1.500027 -4.624998,2.000005 -1.25003,0.500023 -2.500026,0.791685 -3.749998,0.874995 -1.250028,0.08334 -0.750026,-0.416641 1.500001,-1.499999 2.249963,-1.083307 4.208296,-2.166639 5.874995,-3.250003 1.66663,-1.083301 3.499961,-2.374968 5.5,-3.874996 1.999956,-1.499971 3.624957,-2.833301 4.875,-4.000006 1.249951,-1.166625 2.208282,-2.208291 2.875,-3.124997 0.666616,-0.916623 -0.04171,-1.166623 -2.125002,-0.749999 -2.083377,0.416706 -4.12504,0.208373 -6.124999,-0.625001 l -2.999997,2.499999 c -2.666704,1.500036 -4.625033,2.416704 -5.874999,2.75 -1.250031,0.333369 -1.375027,0.12502 -0.375,-0.625001 0.999968,-0.749958 2.499967,-1.999959 4.499998,-3.75 1.999959,-1.749951 3.416626,-3.29162 4.249999,-4.624992 0.833292,-1.333287 1.249959,-2.499947 1.250004,-3.5 -4.5e-5,-1.166617 0.749954,-1.416613 2.249995,-0.750001 1.499956,0.666717 2.499954,1.250047 3.000003,1.750002 0.499951,0.500048 0.458285,0.916713 -0.124984,1.249999 -0.583378,0.333376 -2.041711,1.666712 -4.374997,3.999995 z m -10.75,23.750001 c 0.833301,0.166683 1.958299,0.625015 3.374997,1.374999 1.416633,0.750017 2.249963,1.625015 2.499998,2.624999 0.249967,1.000015 0.249967,1.87501 0,2.624996 -0.250035,0.750009 -0.708368,1.000007 -1.374997,0.749999 -0.666704,-0.249984 -1.33337,-0.791651 -1.999996,-1.624995 -0.666705,-0.833317 -1.416701,-2.041652 -2.250004,-3.624999 -0.833365,-1.583315 -0.916697,-2.29165 -0.249998,-2.124999 z m 0.249998,-16.000005 c 2.166632,0.500033 3.458298,1.208366 3.875001,2.125006 0.416626,0.916701 0.499961,1.625031 0.25,2.124999 -0.250036,0.500029 -0.708368,0.750026 -1.374999,0.75 -0.6667,2.6e-5 -1.375034,-0.333301 -2.125,-0.999999 -0.750032,-0.666634 -1.583365,-1.666638 -2.499998,-3.000002 -0.916694,-1.333303 -0.291698,-1.666637 1.874996,-1.000004 z m 6.250001,-3.749998 c 1.333289,3.9e-5 2.374957,0.250038 3.124999,0.749999 0.749957,0.500037 1.166625,1.08337 1.25,1.749998 0.08326,0.666704 -0.04171,1.166702 -0.375002,1.500003 -0.333375,0.333365 -1.000041,0.208369 -1.999999,-0.375002 -1.000042,-0.5833 -1.875042,-1.374963 -2.625002,-2.374997 -0.750037,-0.999963 -0.541702,-1.416629 0.625004,-1.250001 z"
         style="font-style:normal;font-variant:normal;font-weight:normal;font-stretch:normal;font-size:64px;line-height:100%;font-family:KaiTi;text-align:center;writing-mode:lr-tb;text-anchor:middle;fill:#000000;fill-opacity:1;stroke:#000000;stroke-width:1;stroke-opacity:0.498039"
         id="text11939" />
    </g>
  </g>
</svg>
